STARTFONT 2.1
FONT -DEC-VT330-Bold-R-Normal--20-140-100-100-C-100-ISO8859-1
SIZE 14 100 100
FONTBOUNDINGBOX 10 20 0 -5

STARTPROPERTIES 24
FOUNDRY "DEC"
FAMILY_NAME "VT330"
WEIGHT_NAME "Bold"
SLANT "R"
SETWIDTH_NAME "Normal"
ADD_STYLE_NAME ""
PIXEL_SIZE 20
POINT_SIZE 140
RESOLUTION_X 100
RESOLUTION_Y 100
SPACING "C"
AVERAGE_WIDTH 100
CHARSET_REGISTRY "ISO8859"
CHARSET_ENCODING "1"
CAP_HEIGHT 11
X_HEIGHT 8
COPYRIGHT "Copyright (c) 1987, 1992 Digital Equipment Corporation. All Rights Reserved."
_DEC_PRODUCTINFO "VT330 DECterm Fonts V1.0, 02-Mar-1992"
FULL_NAME "VT330 Bold"
WEIGHT 10
QUAD_WIDTH 10
DEFAULT_CHAR 159
FONT_DESCENT 5
FONT_ASCENT 15
ENDPROPERTIES

CHARS 195

STARTCHAR space
ENCODING 32
SWIDTH 500 0
DWIDTH 10 0
BBX 10 20 0 -5
BITMAP
0000
0000
0000
0000
0000
0000
0000
0000
0000
0000
0000
0000
0000
0000
0000
0000
0000
0000
0000
0000
ENDCHAR

STARTCHAR exclam
ENCODING 33
SWIDTH 500 0
DWIDTH 10 0
BBX 10 20 0 -5
BITMAP
0000
0000
0000
0000
1C00
1C00
1C00
1C00
1C00
1C00
1C00
1C00
0000
1C00
1C00
0000
0000
0000
0000
0000
ENDCHAR

STARTCHAR quotedbl
ENCODING 34
SWIDTH 500 0
DWIDTH 10 0
BBX 10 20 0 -5
BITMAP
0000
7700
7700
7700
7700
0000
0000
0000
0000
0000
0000
0000
0000
0000
0000
0000
0000
0000
0000
0000
ENDCHAR

STARTCHAR numbersign
ENCODING 35
SWIDTH 500 0
DWIDTH 10 0
BBX 10 20 0 -5
BITMAP
0000
0000
0000
0000
7700
7700
FF80
7700
7700
7700
7700
FF80
7700
7700
0000
0000
0000
0000
0000
0000
ENDCHAR

STARTCHAR dollar
ENCODING 36
SWIDTH 500 0
DWIDTH 10 0
BBX 10 20 0 -5
BITMAP
0000
0000
0000
0000
0C00
0C00
3E00
7700
7000
3C00
1E00
0700
7700
3E00
1800
1800
0000
0000
0000
0000
ENDCHAR

STARTCHAR percent
ENCODING 37
SWIDTH 500 0
DWIDTH 10 0
BBX 10 20 0 -5
BITMAP
0000
0000
0000
0000
7080
E980
EB00
EE00
7C00
1800
3700
6E80
CE80
8E80
0700
0000
0000
0000
0000
0000
ENDCHAR

STARTCHAR ampersand
ENCODING 38
SWIDTH 500 0
DWIDTH 10 0
BBX 10 20 0 -5
BITMAP
0000
0000
0000
0000
1C00
3A00
3A00
3A00
3C00
1C00
3E80
6700
E300
F780
7C80
0000
0000
0000
0000
0000
ENDCHAR

STARTCHAR quoteright
ENCODING 39
SWIDTH 500 0
DWIDTH 10 0
BBX 10 20 0 -5
BITMAP
0000
0700
0E00
1C00
0000
0000
0000
0000
0000
0000
0000
0000
0000
0000
0000
0000
0000
0000
0000
0000
ENDCHAR

STARTCHAR parenleft
ENCODING 40
SWIDTH 500 0
DWIDTH 10 0
BBX 10 20 0 -5
BITMAP
0000
0000
0000
0380
0700
0E00
0E00
1C00
1C00
1C00
1C00
1C00
0E00
0E00
0700
0380
0000
0000
0000
0000
ENDCHAR

STARTCHAR parenright
ENCODING 41
SWIDTH 500 0
DWIDTH 10 0
BBX 10 20 0 -5
BITMAP
0000
0000
0000
7000
3800
1C00
1C00
0E00
0E00
0E00
0E00
0E00
1C00
1C00
3800
7000
0000
0000
0000
0000
ENDCHAR

STARTCHAR asterisk
ENCODING 42
SWIDTH 500 0
DWIDTH 10 0
BBX 10 20 0 -5
BITMAP
0000
0000
0000
0000
0000
0C00
6D80
7F80
1E00
1E00
7F80
6D80
0C00
0000
0000
0000
0000
0000
0000
0000
ENDCHAR

STARTCHAR plus
ENCODING 43
SWIDTH 500 0
DWIDTH 10 0
BBX 10 20 0 -5
BITMAP
0000
0000
0000
0000
0000
1C00
1C00
1C00
7F00
7F00
1C00
1C00
1C00
0000
0000
0000
0000
0000
0000
0000
ENDCHAR

STARTCHAR comma
ENCODING 44
SWIDTH 500 0
DWIDTH 10 0
BBX 10 20 0 -5
BITMAP
0000
0000
0000
0000
0000
0000
0000
0000
0000
0000
0000
0000
1C00
1C00
1C00
1800
3000
0000
0000
0000
ENDCHAR

STARTCHAR minus
ENCODING 45
SWIDTH 500 0
DWIDTH 10 0
BBX 10 20 0 -5
BITMAP
0000
0000
0000
0000
0000
0000
0000
0000
7F00
7F00
0000
0000
0000
0000
0000
0000
0000
0000
0000
0000
ENDCHAR

STARTCHAR period
ENCODING 46
SWIDTH 500 0
DWIDTH 10 0
BBX 10 20 0 -5
BITMAP
0000
0000
0000
0000
0000
0000
0000
0000
0000
0000
0000
0000
1C00
1C00
1C00
0000
0000
0000
0000
0000
ENDCHAR

STARTCHAR slash
ENCODING 47
SWIDTH 500 0
DWIDTH 10 0
BBX 10 20 0 -5
BITMAP
0000
0000
0000
0380
0380
0700
0700
0E00
0E00
1C00
1C00
3800
3800
7000
7000
0000
0000
0000
0000
0000
ENDCHAR

STARTCHAR zero
ENCODING 48
SWIDTH 500 0
DWIDTH 10 0
BBX 10 20 0 -5
BITMAP
0000
0000
0000
0000
1E00
3300
7380
7380
7380
7380
7380
7380
7380
3300
1E00
0000
0000
0000
0000
0000
ENDCHAR

STARTCHAR one
ENCODING 49
SWIDTH 500 0
DWIDTH 10 0
BBX 10 20 0 -5
BITMAP
0000
0000
0000
0000
0600
0E00
1E00
3E00
0E00
0E00
0E00
0E00
0E00
0E00
3F80
0000
0000
0000
0000
0000
ENDCHAR

STARTCHAR two
ENCODING 50
SWIDTH 500 0
DWIDTH 10 0
BBX 10 20 0 -5
BITMAP
0000
0000
0000
0000
3F00
7380
7380
0380
0700
1E00
3800
7000
7180
7180
7F80
0000
0000
0000
0000
0000
ENDCHAR

STARTCHAR three
ENCODING 51
SWIDTH 500 0
DWIDTH 10 0
BBX 10 20 0 -5
BITMAP
0000
0000
0000
0000
3F00
7380
7380
0380
0700
0E00
0300
0380
7380
7380
3F00
0000
0000
0000
0000
0000
ENDCHAR

STARTCHAR four
ENCODING 52
SWIDTH 500 0
DWIDTH 10 0
BBX 10 20 0 -5
BITMAP
0000
0000
0000
0000
0380
0780
0F80
1B80
3B80
7380
7380
7FC0
0380
0380
0380
0000
0000
0000
0000
0000
ENDCHAR

STARTCHAR five
ENCODING 53
SWIDTH 500 0
DWIDTH 10 0
BBX 10 20 0 -5
BITMAP
0000
0000
0000
0000
7F80
7000
7000
7000
7F00
0380
0380
0380
7380
7380
3F00
0000
0000
0000
0000
0000
ENDCHAR

STARTCHAR six
ENCODING 54
SWIDTH 500 0
DWIDTH 10 0
BBX 10 20 0 -5
BITMAP
0000
0000
0000
0000
3F00
7380
7380
7000
7F00
7380
7380
7380
7380
7380
3F00
0000
0000
0000
0000
0000
ENDCHAR

STARTCHAR seven
ENCODING 55
SWIDTH 500 0
DWIDTH 10 0
BBX 10 20 0 -5
BITMAP
0000
0000
0000
0000
7F80
7380
7380
0700
0700
0E00
0E00
0E00
1C00
1C00
1C00
0000
0000
0000
0000
0000
ENDCHAR

STARTCHAR eight
ENCODING 56
SWIDTH 500 0
DWIDTH 10 0
BBX 10 20 0 -5
BITMAP
0000
0000
0000
0000
3F00
7380
7380
7380
7380
3F00
7380
7380
7380
7380
3F00
0000
0000
0000
0000
0000
ENDCHAR

STARTCHAR nine
ENCODING 57
SWIDTH 500 0
DWIDTH 10 0
BBX 10 20 0 -5
BITMAP
0000
0000
0000
0000
3F00
7380
7380
7380
7380
7380
3F80
0380
7380
7380
3F00
0000
0000
0000
0000
0000
ENDCHAR

STARTCHAR colon
ENCODING 58
SWIDTH 500 0
DWIDTH 10 0
BBX 10 20 0 -5
BITMAP
0000
0000
0000
0000
0000
0000
0000
1C00
1C00
1C00
0000
0000
1C00
1C00
1C00
0000
0000
0000
0000
0000
ENDCHAR

STARTCHAR semicolon
ENCODING 59
SWIDTH 500 0
DWIDTH 10 0
BBX 10 20 0 -5
BITMAP
0000
0000
0000
0000
0000
0000
0000
1C00
1C00
1C00
0000
0000
1C00
1C00
1C00
1800
3000
0000
0000
0000
ENDCHAR

STARTCHAR less
ENCODING 60
SWIDTH 500 0
DWIDTH 10 0
BBX 10 20 0 -5
BITMAP
0000
0000
0000
0000
0380
0700
0E00
1C00
3800
7000
3800
1C00
0E00
0700
0380
0000
0000
0000
0000
0000
ENDCHAR

STARTCHAR equal
ENCODING 61
SWIDTH 500 0
DWIDTH 10 0
BBX 10 20 0 -5
BITMAP
0000
0000
0000
0000
0000
0000
7F00
7F00
0000
0000
7F00
7F00
0000
0000
0000
0000
0000
0000
0000
0000
ENDCHAR

STARTCHAR greater
ENCODING 62
SWIDTH 500 0
DWIDTH 10 0
BBX 10 20 0 -5
BITMAP
0000
0000
0000
0000
7000
3800
1C00
0E00
0700
0380
0700
0E00
1C00
3800
7000
0000
0000
0000
0000
0000
ENDCHAR

STARTCHAR question
ENCODING 63
SWIDTH 500 0
DWIDTH 10 0
BBX 10 20 0 -5
BITMAP
0000
0000
0000
3F00
7380
7380
0380
0700
0E00
0C00
0800
0000
1C00
1C00
1C00
0000
0000
0000
0000
0000
ENDCHAR

STARTCHAR at
ENCODING 64
SWIDTH 500 0
DWIDTH 10 0
BBX 10 20 0 -5
BITMAP
0000
0000
0000
0000
3E00
7100
E180
E780
ED80
ED80
ED80
E780
E000
6300
3E00
0000
0000
0000
0000
0000
ENDCHAR

STARTCHAR A
ENCODING 65
SWIDTH 500 0
DWIDTH 10 0
BBX 10 20 0 -5
BITMAP
0000
0000
0000
0000
1C00
3E00
3600
7700
6300
E380
FF80
E380
E380
E380
E380
0000
0000
0000
0000
0000
ENDCHAR

STARTCHAR B
ENCODING 66
SWIDTH 500 0
DWIDTH 10 0
BBX 10 20 0 -5
BITMAP
0000
0000
0000
0000
FE00
E700
E700
E700
FF00
E380
E380
E380
E380
E780
FF00
0000
0000
0000
0000
0000
ENDCHAR

STARTCHAR C
ENCODING 67
SWIDTH 500 0
DWIDTH 10 0
BBX 10 20 0 -5
BITMAP
0000
0000
0000
0000
3E80
7380
E180
E000
E000
E000
E000
E000
E180
7380
3F00
0000
0000
0000
0000
0000
ENDCHAR

STARTCHAR D
ENCODING 68
SWIDTH 500 0
DWIDTH 10 0
BBX 10 20 0 -5
BITMAP
0000
0000
0000
0000
FE00
7300
7380
7380
7380
7380
7380
7380
7380
7300
FE00
0000
0000
0000
0000
0000
ENDCHAR

STARTCHAR E
ENCODING 69
SWIDTH 500 0
DWIDTH 10 0
BBX 10 20 0 -5
BITMAP
0000
0000
0000
0000
7F80
7000
7000
7000
7000
7F00
7000
7000
7000
7000
7F80
0000
0000
0000
0000
0000
ENDCHAR

STARTCHAR F
ENCODING 70
SWIDTH 500 0
DWIDTH 10 0
BBX 10 20 0 -5
BITMAP
0000
0000
0000
0000
7F80
7000
7000
7000
7000
7F00
7000
7000
7000
7000
7000
0000
0000
0000
0000
0000
ENDCHAR

STARTCHAR G
ENCODING 71
SWIDTH 500 0
DWIDTH 10 0
BBX 10 20 0 -5
BITMAP
0000
0000
0000
0000
3E80
7380
E380
E000
E000
E780
E380
E380
E380
7300
3E00
0000
0000
0000
0000
0000
ENDCHAR

STARTCHAR H
ENCODING 72
SWIDTH 500 0
DWIDTH 10 0
BBX 10 20 0 -5
BITMAP
0000
0000
0000
0000
E380
E380
E380
E380
E380
FF80
E380
E380
E380
E380
E380
0000
0000
0000
0000
0000
ENDCHAR

STARTCHAR I
ENCODING 73
SWIDTH 500 0
DWIDTH 10 0
BBX 10 20 0 -5
BITMAP
0000
0000
0000
0000
FF80
1C00
1C00
1C00
1C00
1C00
1C00
1C00
1C00
1C00
FF80
0000
0000
0000
0000
0000
ENDCHAR

STARTCHAR J
ENCODING 74
SWIDTH 500 0
DWIDTH 10 0
BBX 10 20 0 -5
BITMAP
0000
0000
0000
0000
3F80
0E00
0E00
0E00
0E00
0E00
0E00
0E00
EE00
EE00
7C00
0000
0000
0000
0000
0000
ENDCHAR

STARTCHAR K
ENCODING 75
SWIDTH 500 0
DWIDTH 10 0
BBX 10 20 0 -5
BITMAP
0000
0000
0000
0000
E180
E380
E700
EE00
FC00
F800
FC00
EE00
E700
E380
E180
0000
0000
0000
0000
0000
ENDCHAR

STARTCHAR L
ENCODING 76
SWIDTH 500 0
DWIDTH 10 0
BBX 10 20 0 -5
BITMAP
0000
0000
0000
0000
7000
7000
7000
7000
7000
7000
7000
7000
7000
7000
7F80
0000
0000
0000
0000
0000
ENDCHAR

STARTCHAR M
ENCODING 77
SWIDTH 500 0
DWIDTH 10 0
BBX 10 20 0 -5
BITMAP
0000
0000
0000
0000
C180
E380
F780
FF80
FF80
EB80
EB80
E380
E380
E380
E380
0000
0000
0000
0000
0000
ENDCHAR

STARTCHAR N
ENCODING 78
SWIDTH 500 0
DWIDTH 10 0
BBX 10 20 0 -5
BITMAP
0000
0000
0000
0000
E380
E380
F380
F380
FB80
FF80
EF80
E780
E780
E380
E380
0000
0000
0000
0000
0000
ENDCHAR

STARTCHAR O
ENCODING 79
SWIDTH 500 0
DWIDTH 10 0
BBX 10 20 0 -5
BITMAP
0000
0000
0000
0000
3E00
7700
E380
E380
E380
E380
E380
E380
E380
7700
3E00
0000
0000
0000
0000
0000
ENDCHAR

STARTCHAR P
ENCODING 80
SWIDTH 500 0
DWIDTH 10 0
BBX 10 20 0 -5
BITMAP
0000
0000
0000
0000
7E00
7300
7380
7380
7380
7380
7300
7E00
7000
7000
7000
0000
0000
0000
0000
0000
ENDCHAR

STARTCHAR Q
ENCODING 81
SWIDTH 500 0
DWIDTH 10 0
BBX 10 20 0 -5
BITMAP
0000
0000
0000
0000
3E00
7700
E380
E380
E380
E380
E380
E380
E380
7F00
3E00
0700
0380
0000
0000
0000
ENDCHAR

STARTCHAR R
ENCODING 82
SWIDTH 500 0
DWIDTH 10 0
BBX 10 20 0 -5
BITMAP
0000
0000
0000
0000
FE00
E700
E380
E380
E380
FF00
FC00
EE00
E700
E380
E180
0000
0000
0000
0000
0000
ENDCHAR

STARTCHAR S
ENCODING 83
SWIDTH 500 0
DWIDTH 10 0
BBX 10 20 0 -5
BITMAP
0000
0000
0000
0000
7F00
F380
E380
E380
E000
3F00
0380
E380
E380
F780
7F00
0000
0000
0000
0000
0000
ENDCHAR

STARTCHAR T
ENCODING 84
SWIDTH 500 0
DWIDTH 10 0
BBX 10 20 0 -5
BITMAP
0000
0000
0000
0000
FF80
1C00
1C00
1C00
1C00
1C00
1C00
1C00
1C00
1C00
1C00
0000
0000
0000
0000
0000
ENDCHAR

STARTCHAR U
ENCODING 85
SWIDTH 500 0
DWIDTH 10 0
BBX 10 20 0 -5
BITMAP
0000
0000
0000
0000
E380
E380
E380
E380
E380
E380
E380
E380
E380
6300
3E00
0000
0000
0000
0000
0000
ENDCHAR

STARTCHAR V
ENCODING 86
SWIDTH 500 0
DWIDTH 10 0
BBX 10 20 0 -5
BITMAP
0000
0000
0000
0000
E380
E380
E380
E380
E380
E380
6300
7700
3600
3E00
1C00
0000
0000
0000
0000
0000
ENDCHAR

STARTCHAR W
ENCODING 87
SWIDTH 500 0
DWIDTH 10 0
BBX 10 20 0 -5
BITMAP
0000
0000
0000
0000
E380
E380
E380
E380
E380
EB80
EB80
EB80
FF80
7700
6300
0000
0000
0000
0000
0000
ENDCHAR

STARTCHAR X
ENCODING 88
SWIDTH 500 0
DWIDTH 10 0
BBX 10 20 0 -5
BITMAP
0000
0000
0000
0000
E380
E380
7700
3600
3E00
1C00
3E00
3600
7700
E380
E380
0000
0000
0000
0000
0000
ENDCHAR

STARTCHAR Y
ENCODING 89
SWIDTH 500 0
DWIDTH 10 0
BBX 10 20 0 -5
BITMAP
0000
0000
0000
0000
E380
E380
E380
6300
7700
3600
1C00
1C00
1C00
1C00
1C00
0000
0000
0000
0000
0000
ENDCHAR

STARTCHAR Z
ENCODING 90
SWIDTH 500 0
DWIDTH 10 0
BBX 10 20 0 -5
BITMAP
0000
0000
0000
0000
7F80
6380
0380
0780
0F00
1E00
3C00
7800
7000
7180
7F80
0000
0000
0000
0000
0000
ENDCHAR

STARTCHAR bracketleft
ENCODING 91
SWIDTH 500 0
DWIDTH 10 0
BBX 10 20 0 -5
BITMAP
0000
0000
0000
1F00
1C00
1C00
1C00
1C00
1C00
1C00
1C00
1C00
1C00
1C00
1C00
1F00
0000
0000
0000
0000
ENDCHAR

STARTCHAR backslash
ENCODING 92
SWIDTH 500 0
DWIDTH 10 0
BBX 10 20 0 -5
BITMAP
0000
0000
0000
7000
7000
3800
3800
1C00
1C00
0E00
0E00
0700
0700
0380
0380
0000
0000
0000
0000
0000
ENDCHAR

STARTCHAR bracketright
ENCODING 93
SWIDTH 500 0
DWIDTH 10 0
BBX 10 20 0 -5
BITMAP
0000
0000
0000
3E00
0E00
0E00
0E00
0E00
0E00
0E00
0E00
0E00
0E00
0E00
0E00
3E00
0000
0000
0000
0000
ENDCHAR

STARTCHAR asciicircum
ENCODING 94
SWIDTH 500 0
DWIDTH 10 0
BBX 10 20 0 -5
BITMAP
0000
0C00
1E00
3F00
7380
0000
0000
0000
0000
0000
0000
0000
0000
0000
0000
0000
0000
0000
0000
0000
ENDCHAR

STARTCHAR underscore
ENCODING 95
SWIDTH 500 0
DWIDTH 10 0
BBX 10 20 0 -5
BITMAP
0000
0000
0000
0000
0000
0000
0000
0000
0000
0000
0000
0000
0000
0000
7F80
7F80
0000
0000
0000
0000
ENDCHAR

STARTCHAR quoteleft
ENCODING 96
SWIDTH 500 0
DWIDTH 10 0
BBX 10 20 0 -5
BITMAP
0000
3800
1C00
0E00
0000
0000
0000
0000
0000
0000
0000
0000
0000
0000
0000
0000
0000
0000
0000
0000
ENDCHAR

STARTCHAR a
ENCODING 97
SWIDTH 500 0
DWIDTH 10 0
BBX 10 20 0 -5
BITMAP
0000
0000
0000
0000
0000
0000
0000
3F00
6380
0380
7F80
E380
E380
E780
7B80
0000
0000
0000
0000
0000
ENDCHAR

STARTCHAR b
ENCODING 98
SWIDTH 500 0
DWIDTH 10 0
BBX 10 20 0 -5
BITMAP
0000
0000
0000
0000
F000
7000
7000
7E00
7700
7380
7380
7380
7380
7700
7E00
0000
0000
0000
0000
0000
ENDCHAR

STARTCHAR c
ENCODING 99
SWIDTH 500 0
DWIDTH 10 0
BBX 10 20 0 -5
BITMAP
0000
0000
0000
0000
0000
0000
0000
3F00
7380
E180
E000
E000
E180
7380
3F00
0000
0000
0000
0000
0000
ENDCHAR

STARTCHAR d
ENCODING 100
SWIDTH 500 0
DWIDTH 10 0
BBX 10 20 0 -5
BITMAP
0000
0000
0000
0000
0380
0380
0380
3F80
7380
E380
E380
E380
E380
7F80
3B80
0000
0000
0000
0000
0000
ENDCHAR

STARTCHAR e
ENCODING 101
SWIDTH 500 0
DWIDTH 10 0
BBX 10 20 0 -5
BITMAP
0000
0000
0000
0000
0000
0000
0000
3E00
7300
E380
FF80
E000
E180
7380
3F00
0000
0000
0000
0000
0000
ENDCHAR

STARTCHAR f
ENCODING 102
SWIDTH 500 0
DWIDTH 10 0
BBX 10 20 0 -5
BITMAP
0000
0000
0000
0000
1F00
3F80
3800
FF00
3800
3800
3800
3800
3800
3800
3800
0000
0000
0000
0000
0000
ENDCHAR

STARTCHAR g
ENCODING 103
SWIDTH 500 0
DWIDTH 10 0
BBX 10 20 0 -5
BITMAP
0000
0000
0000
0000
0000
0000
0000
3D80
7780
E380
E380
E380
E380
7780
1B80
0380
E380
6300
3E00
0000
ENDCHAR

STARTCHAR h
ENCODING 104
SWIDTH 500 0
DWIDTH 10 0
BBX 10 20 0 -5
BITMAP
0000
0000
0000
0000
E000
E000
E000
EF00
F380
E380
E380
E380
E380
E380
E380
0000
0000
0000
0000
0000
ENDCHAR

STARTCHAR i
ENCODING 105
SWIDTH 500 0
DWIDTH 10 0
BBX 10 20 0 -5
BITMAP
0000
0000
0000
0000
1C00
1C00
0000
7C00
1C00
1C00
1C00
1C00
1C00
1C00
FF80
0000
0000
0000
0000
0000
ENDCHAR

STARTCHAR j
ENCODING 106
SWIDTH 500 0
DWIDTH 10 0
BBX 10 20 0 -5
BITMAP
0000
0000
0000
0000
0E00
0E00
0000
3E00
0E00
0E00
0E00
0E00
0E00
0E00
0E00
0E00
CE00
EE00
7C00
0000
ENDCHAR

STARTCHAR k
ENCODING 107
SWIDTH 500 0
DWIDTH 10 0
BBX 10 20 0 -5
BITMAP
0000
0000
0000
0000
F000
7000
7180
7380
7700
7E00
7C00
7E00
7700
7380
7380
0000
0000
0000
0000
0000
ENDCHAR

STARTCHAR l
ENCODING 108
SWIDTH 500 0
DWIDTH 10 0
BBX 10 20 0 -5
BITMAP
0000
0000
0000
0000
7C00
1C00
1C00
1C00
1C00
1C00
1C00
1C00
1C00
1C00
FF80
0000
0000
0000
0000
0000
ENDCHAR

STARTCHAR m
ENCODING 109
SWIDTH 500 0
DWIDTH 10 0
BBX 10 20 0 -5
BITMAP
0000
0000
0000
0000
0000
0000
0000
FF00
ED80
ED80
ED80
ED80
ED80
ED80
ED80
0000
0000
0000
0000
0000
ENDCHAR

STARTCHAR n
ENCODING 110
SWIDTH 500 0
DWIDTH 10 0
BBX 10 20 0 -5
BITMAP
0000
0000
0000
0000
0000
0000
0000
EF00
F780
E380
E380
E380
E380
E380
E380
0000
0000
0000
0000
0000
ENDCHAR

STARTCHAR o
ENCODING 111
SWIDTH 500 0
DWIDTH 10 0
BBX 10 20 0 -5
BITMAP
0000
0000
0000
0000
0000
0000
0000
3E00
6300
E380
E380
E380
E380
6300
3E00
0000
0000
0000
0000
0000
ENDCHAR

STARTCHAR p
ENCODING 112
SWIDTH 500 0
DWIDTH 10 0
BBX 10 20 0 -5
BITMAP
0000
0000
0000
0000
0000
0000
0000
E600
FF00
E380
E380
E380
E380
E700
FE00
E000
E000
E000
E000
0000
ENDCHAR

STARTCHAR q
ENCODING 113
SWIDTH 500 0
DWIDTH 10 0
BBX 10 20 0 -5
BITMAP
0000
0000
0000
0000
0000
0000
0000
3B80
7F80
E380
E380
E380
E380
7380
3F80
0380
0380
0380
0380
0000
ENDCHAR

STARTCHAR r
ENCODING 114
SWIDTH 500 0
DWIDTH 10 0
BBX 10 20 0 -5
BITMAP
0000
0000
0000
0000
0000
0000
0000
F700
7B80
7180
7000
7000
7000
7000
F800
0000
0000
0000
0000
0000
ENDCHAR

STARTCHAR s
ENCODING 115
SWIDTH 500 0
DWIDTH 10 0
BBX 10 20 0 -5
BITMAP
0000
0000
0000
0000
0000
0000
0000
7F00
E380
E000
7F00
0380
E380
E380
7F00
0000
0000
0000
0000
0000
ENDCHAR

STARTCHAR t
ENCODING 116
SWIDTH 500 0
DWIDTH 10 0
BBX 10 20 0 -5
BITMAP
0000
0000
0000
0000
3800
3800
3800
FF00
3800
3800
3800
3800
3800
3B80
1F00
0000
0000
0000
0000
0000
ENDCHAR

STARTCHAR u
ENCODING 117
SWIDTH 500 0
DWIDTH 10 0
BBX 10 20 0 -5
BITMAP
0000
0000
0000
0000
0000
0000
0000
E380
E380
E380
E380
E380
E380
E380
7D80
0000
0000
0000
0000
0000
ENDCHAR

STARTCHAR v
ENCODING 118
SWIDTH 500 0
DWIDTH 10 0
BBX 10 20 0 -5
BITMAP
0000
0000
0000
0000
0000
0000
0000
E380
E380
E380
E380
6300
7700
3600
1C00
0000
0000
0000
0000
0000
ENDCHAR

STARTCHAR w
ENCODING 119
SWIDTH 500 0
DWIDTH 10 0
BBX 10 20 0 -5
BITMAP
0000
0000
0000
0000
0000
0000
0000
E380
E380
EB80
EB80
EB80
FF80
7700
2200
0000
0000
0000
0000
0000
ENDCHAR

STARTCHAR x
ENCODING 120
SWIDTH 500 0
DWIDTH 10 0
BBX 10 20 0 -5
BITMAP
0000
0000
0000
0000
0000
0000
0000
F780
7700
3E00
1C00
1C00
3E00
7700
F780
0000
0000
0000
0000
0000
ENDCHAR

STARTCHAR y
ENCODING 121
SWIDTH 500 0
DWIDTH 10 0
BBX 10 20 0 -5
BITMAP
0000
0000
0000
0000
0000
0000
0000
E380
E380
E380
E380
E380
7700
3700
1E00
1C00
3C00
7800
7000
0000
ENDCHAR

STARTCHAR z
ENCODING 122
SWIDTH 500 0
DWIDTH 10 0
BBX 10 20 0 -5
BITMAP
0000
0000
0000
0000
0000
0000
0000
7F80
4780
0F80
1F00
3E00
7C00
7880
7F80
0000
0000
0000
0000
0000
ENDCHAR

STARTCHAR braceleft
ENCODING 123
SWIDTH 500 0
DWIDTH 10 0
BBX 10 20 0 -5
BITMAP
0000
0000
0000
0700
0E00
0E00
0E00
0E00
1C00
7000
1C00
0E00
0E00
0E00
0E00
0700
0000
0000
0000
0000
ENDCHAR

STARTCHAR bar
ENCODING 124
SWIDTH 500 0
DWIDTH 10 0
BBX 10 20 0 -5
BITMAP
0000
0000
0000
0E00
0E00
0E00
0E00
0E00
0E00
0E00
0E00
0E00
0E00
0E00
0E00
0E00
0000
0000
0000
0000
ENDCHAR

STARTCHAR braceright
ENCODING 125
SWIDTH 500 0
DWIDTH 10 0
BBX 10 20 0 -5
BITMAP
0000
0000
0000
3800
1C00
1C00
1C00
1C00
0E00
0380
0E00
1C00
1C00
1C00
1C00
3800
0000
0000
0000
0000
ENDCHAR

STARTCHAR asciitilde
ENCODING 126
SWIDTH 500 0
DWIDTH 10 0
BBX 10 20 0 -5
BITMAP
0000
3980
7F80
6F00
0000
0000
0000
0000
0000
0000
0000
0000
0000
0000
0000
0000
0000
0000
0000
0000
ENDCHAR

STARTCHAR OE
ENCODING 128
SWIDTH 500 0
DWIDTH 10 0
BBX 10 20 0 -5
BITMAP
0000
0000
0000
0000
7F80
EE00
EE00
EE00
EE00
EF00
EE00
EE00
EE00
EE00
7F80
0000
0000
0000
0000
0000
ENDCHAR

STARTCHAR oe
ENCODING 129
SWIDTH 500 0
DWIDTH 10 0
BBX 10 20 0 -5
BITMAP
0000
0000
0000
0000
0000
0000
0000
7F00
ED80
ED80
EF80
EC00
EC00
EC00
7F80
0000
0000
0000
0000
0000
ENDCHAR

STARTCHAR Ydieresis
ENCODING 130
SWIDTH 500 0
DWIDTH 10 0
BBX 10 20 0 -5
BITMAP
0000
E380
E380
0000
E380
E380
E380
E380
7700
3E00
1C00
1C00
1C00
1C00
1C00
0000
0000
0000
0000
0000
ENDCHAR

STARTCHAR Error
ENCODING 159
SWIDTH 500 0
DWIDTH 10 0
BBX 10 20 0 -5
BITMAP
0000
3F00
7F80
FFC0
F3C0
F1C0
F800
7C00
3C00
1E00
1E00
1E00
1E00
1E00
1E00
0000
0000
1E00
1E00
1E00
ENDCHAR

STARTCHAR space
ENCODING 160
SWIDTH 500 0
DWIDTH 10 0
BBX 10 20 0 -5
BITMAP
0000
0000
0000
0000
0000
0000
0000
0000
0000
0000
0000
0000
0000
0000
0000
0000
0000
0000
0000
0000
ENDCHAR

STARTCHAR exclamdown
ENCODING 161
SWIDTH 500 0
DWIDTH 10 0
BBX 10 20 0 -5
BITMAP
0000
0000
0000
0000
1C00
1C00
0000
1C00
1C00
1C00
1C00
1C00
1C00
1C00
1C00
1C00
0000
0000
0000
0000
ENDCHAR

STARTCHAR cent
ENCODING 162
SWIDTH 500 0
DWIDTH 10 0
BBX 10 20 0 -5
BITMAP
0000
0000
0000
0000
0C00
0C00
3F00
7380
7380
7000
7380
7380
3F00
0C00
0C00
0000
0000
0000
0000
0000
ENDCHAR

STARTCHAR sterling
ENCODING 163
SWIDTH 500 0
DWIDTH 10 0
BBX 10 20 0 -5
BITMAP
0000
0000
0000
0000
0F00
1B80
3B80
3800
3800
FF00
3800
3800
7B80
FB80
EF80
0000
0000
0000
0000
0000
ENDCHAR

STARTCHAR currency
ENCODING 164
SWIDTH 500 0
DWIDTH 10 0
BBX 10 20 0 -5
BITMAP
0000
0000
0000
0000
0000
8080
7F00
7700
7700
7700
7700
7700
7F00
8080
0000
0000
0000
0000
0000
0000
ENDCHAR

STARTCHAR yen
ENCODING 165
SWIDTH 500 0
DWIDTH 10 0
BBX 10 20 0 -5
BITMAP
0000
0000
0000
0000
E380
E380
7700
7F00
3E00
FF80
1C00
1C00
FF80
1C00
1C00
0000
0000
0000
0000
0000
ENDCHAR

STARTCHAR brokenbar
ENCODING 166
SWIDTH 500 0
DWIDTH 10 0
BBX 10 20 0 -5
BITMAP
0000
0000
0000
1C00
1C00
1C00
1C00
1C00
1C00
0000
1C00
1C00
1C00
1C00
1C00
1C00
0000
0000
0000
0000
ENDCHAR

STARTCHAR section
ENCODING 167
SWIDTH 500 0
DWIDTH 10 0
BBX 10 20 0 -5
BITMAP
0000
0000
0000
3F00
7B80
7D80
7E80
6F00
7780
3B80
5D80
6F80
7780
7B80
3F00
0000
0000
0000
0000
0000
ENDCHAR

STARTCHAR dieresis
ENCODING 168
SWIDTH 500 0
DWIDTH 10 0
BBX 10 20 0 -5
BITMAP
0000
7380
7380
0000
0000
0000
0000
0000
0000
0000
0000
0000
0000
0000
0000
0000
0000
0000
0000
0000
ENDCHAR

STARTCHAR copyright
ENCODING 169
SWIDTH 500 0
DWIDTH 10 0
BBX 10 20 0 -5
BITMAP
0000
0000
0000
3E00
4100
9C80
BA80
BA80
B880
B880
BA80
BA80
9C80
4100
3E00
0000
0000
0000
0000
0000
ENDCHAR

STARTCHAR ordfeminine
ENCODING 170
SWIDTH 500 0
DWIDTH 10 0
BBX 10 20 0 -5
BITMAP
0000
0000
0000
3C00
0E00
3E00
6E00
7E00
3E00
0000
7E00
0000
0000
0000
0000
0000
0000
0000
0000
0000
ENDCHAR

STARTCHAR guillemotleft
ENCODING 171
SWIDTH 500 0
DWIDTH 10 0
BBX 10 20 0 -5
BITMAP
0000
0000
0000
0000
0000
0000
1DC0
3B80
7700
EE00
7700
3B80
1DC0
0000
0000
0000
0000
0000
0000
0000
ENDCHAR

STARTCHAR logicalnot
ENCODING 172
SWIDTH 500 0
DWIDTH 10 0
BBX 10 20 0 -5
BITMAP
0000
0000
0000
7F00
7F00
0300
0300
0000
0000
0000
0000
0000
0000
0000
0000
0000
0000
0000
0000
0000
ENDCHAR

STARTCHAR hyphen
ENCODING 173
SWIDTH 500 0
DWIDTH 10 0
BBX 10 20 0 -5
BITMAP
0000
0000
0000
0000
0000
0000
0000
0000
3E00
3E00
0000
0000
0000
0000
0000
0000
0000
0000
0000
0000
ENDCHAR

STARTCHAR registered
ENCODING 174
SWIDTH 500 0
DWIDTH 10 0
BBX 10 20 0 -5
BITMAP
0000
0000
0000
3E00
4100
BC80
BE80
B680
B680
BC80
B680
B680
B680
4100
3E00
0000
0000
0000
0000
0000
ENDCHAR

STARTCHAR macron
ENCODING 175
SWIDTH 500 0
DWIDTH 10 0
BBX 10 20 0 -5
BITMAP
0000
0000
3F00
3F00
0000
0000
0000
0000
0000
0000
0000
0000
0000
0000
0000
0000
0000
0000
0000
0000
ENDCHAR

STARTCHAR degree
ENCODING 176
SWIDTH 500 0
DWIDTH 10 0
BBX 10 20 0 -5
BITMAP
0000
0000
0000
3E00
7300
7300
3E00
0000
0000
0000
0000
0000
0000
0000
0000
0000
0000
0000
0000
0000
ENDCHAR

STARTCHAR plusminus
ENCODING 177
SWIDTH 500 0
DWIDTH 10 0
BBX 10 20 0 -5
BITMAP
0000
0000
0000
0000
1C00
1C00
7F00
7F00
1C00
1C00
1C00
0000
7F00
7F00
0000
0000
0000
0000
0000
0000
ENDCHAR

STARTCHAR twosuperior
ENCODING 178
SWIDTH 500 0
DWIDTH 10 0
BBX 10 20 0 -5
BITMAP
0000
0000
0000
3C00
6E00
0E00
1C00
3800
7000
7E00
0000
0000
0000
0000
0000
0000
0000
0000
0000
0000
ENDCHAR

STARTCHAR threesuperior
ENCODING 179
SWIDTH 500 0
DWIDTH 10 0
BBX 10 20 0 -5
BITMAP
0000
0000
0000
3C00
4E00
0E00
3C00
0E00
4E00
3C00
0000
0000
0000
0000
0000
0000
0000
0000
0000
0000
ENDCHAR

STARTCHAR acute
ENCODING 180
SWIDTH 500 0
DWIDTH 10 0
BBX 10 20 0 -5
BITMAP
0000
0E00
1C00
0000
0000
0000
0000
0000
0000
0000
0000
0000
0000
0000
0000
0000
0000
0000
0000
0000
ENDCHAR

STARTCHAR mu
ENCODING 181
SWIDTH 500 0
DWIDTH 10 0
BBX 10 20 0 -5
BITMAP
0000
0000
0000
0000
0000
0000
0000
7700
7700
7700
7700
7700
7700
7700
7D80
E000
C000
0000
0000
0000
ENDCHAR

STARTCHAR paragraph
ENCODING 182
SWIDTH 500 0
DWIDTH 10 0
BBX 10 20 0 -5
BITMAP
0000
0000
0000
3F80
7700
F700
F700
F700
F700
7700
3700
3700
3700
3700
3700
3700
0000
0000
0000
0000
ENDCHAR

STARTCHAR periodcentered
ENCODING 183
SWIDTH 500 0
DWIDTH 10 0
BBX 10 20 0 -5
BITMAP
0000
0000
0000
0000
0000
0000
0000
0000
1C00
1C00
1C00
0000
0000
0000
0000
0000
0000
0000
0000
0000
ENDCHAR

STARTCHAR cedilla
ENCODING 184
SWIDTH 500 0
DWIDTH 10 0
BBX 10 20 0 -5
BITMAP
0000
0000
0000
0000
0000
0000
0000
0000
0000
0000
0000
0000
0000
0700
0700
0E00
1C00
0000
0000
0000
ENDCHAR

STARTCHAR onesuperior
ENCODING 185
SWIDTH 500 0
DWIDTH 10 0
BBX 10 20 0 -5
BITMAP
0000
0000
0000
1C00
3C00
1C00
1C00
1C00
1C00
3E00
0000
0000
0000
0000
0000
0000
0000
0000
0000
0000
ENDCHAR

STARTCHAR ordmasculine
ENCODING 186
SWIDTH 500 0
DWIDTH 10 0
BBX 10 20 0 -5
BITMAP
0000
0000
0000
3C00
6E00
6E00
6E00
6E00
3C00
0000
7E00
0000
0000
0000
0000
0000
0000
0000
0000
0000
ENDCHAR

STARTCHAR guillemotright
ENCODING 187
SWIDTH 500 0
DWIDTH 10 0
BBX 10 20 0 -5
BITMAP
0000
0000
0000
0000
0000
0000
EE00
7700
3B80
1DC0
3B80
7700
EE00
0000
0000
0000
0000
0000
0000
0000
ENDCHAR

STARTCHAR onequarter
ENCODING 188
SWIDTH 500 0
DWIDTH 10 0
BBX 10 20 0 -5
BITMAP
0000
0000
0000
7000
F000
7180
7300
7600
7C00
FB80
3780
6F80
DB80
BF80
0380
0380
0000
0000
0000
0000
ENDCHAR

STARTCHAR onehalf
ENCODING 189
SWIDTH 500 0
DWIDTH 10 0
BBX 10 20 0 -5
BITMAP
0000
0000
0000
7000
F000
7180
7300
7600
7C00
F800
3700
6B80
C780
8F00
0E00
0F80
0000
0000
0000
0000
ENDCHAR

STARTCHAR threequarters
ENCODING 190
SWIDTH 500 0
DWIDTH 10 0
BBX 10 20 0 -5
BITMAP
0000
0000
0000
7000
F800
1800
3300
9E00
FC00
7B00
3700
6F00
DB00
BF80
0300
0300
0000
0000
0000
0000
ENDCHAR

STARTCHAR questiondown
ENCODING 191
SWIDTH 500 0
DWIDTH 10 0
BBX 10 20 0 -5
BITMAP
0000
0000
0000
0000
1C00
1C00
1C00
0000
0800
0C00
0E00
0700
7380
7380
7380
3F00
0000
0000
0000
0000
ENDCHAR

STARTCHAR Agrave
ENCODING 192
SWIDTH 500 0
DWIDTH 10 0
BBX 10 20 0 -5
BITMAP
0000
3800
1C00
0000
1C00
3E00
3600
7700
6300
E380
FF80
E380
E380
E380
E380
0000
0000
0000
0000
0000
ENDCHAR

STARTCHAR Aacute
ENCODING 193
SWIDTH 500 0
DWIDTH 10 0
BBX 10 20 0 -5
BITMAP
0000
0E00
1C00
0000
1C00
3E00
3600
7700
6300
E380
FF80
E380
E380
E380
E380
0000
0000
0000
0000
0000
ENDCHAR

STARTCHAR Acircumflex
ENCODING 194
SWIDTH 500 0
DWIDTH 10 0
BBX 10 20 0 -5
BITMAP
0000
3E00
7700
0000
1C00
3E00
3600
7700
6300
E380
FF80
E380
E380
E380
E380
0000
0000
0000
0000
0000
ENDCHAR

STARTCHAR Atilde
ENCODING 195
SWIDTH 500 0
DWIDTH 10 0
BBX 10 20 0 -5
BITMAP
0000
1D00
2E00
0000
1C00
3E00
3600
7700
6300
E380
FF80
E380
E380
E380
E380
0000
0000
0000
0000
0000
ENDCHAR

STARTCHAR Adieresis
ENCODING 196
SWIDTH 500 0
DWIDTH 10 0
BBX 10 20 0 -5
BITMAP
0000
7700
7700
0000
1C00
3E00
3600
7700
6300
E380
FF80
E380
E380
E380
E380
0000
0000
0000
0000
0000
ENDCHAR

STARTCHAR Aring
ENCODING 197
SWIDTH 500 0
DWIDTH 10 0
BBX 10 20 0 -5
BITMAP
0000
1C00
1C00
0000
1C00
3E00
3600
7700
6300
E380
FF80
E380
E380
E380
E380
0000
0000
0000
0000
0000
ENDCHAR

STARTCHAR AE
ENCODING 198
SWIDTH 500 0
DWIDTH 10 0
BBX 10 20 0 -5
BITMAP
0000
0000
0000
0000
1F80
3E00
6E00
6E00
EE00
FF00
EE00
EE00
EE00
EE00
EF80
0000
0000
0000
0000
0000
ENDCHAR

STARTCHAR Ccedilla
ENCODING 199
SWIDTH 500 0
DWIDTH 10 0
BBX 10 20 0 -5
BITMAP
0000
0000
0000
0000
3E80
7380
E180
E000
E000
E000
E000
E000
E180
7380
3F00
0C00
1800
0000
0000
0000
ENDCHAR

STARTCHAR Egrave
ENCODING 200
SWIDTH 500 0
DWIDTH 10 0
BBX 10 20 0 -5
BITMAP
0000
1C00
0E00
0000
7F80
7000
7000
7000
7000
7F00
7000
7000
7000
7000
7F80
0000
0000
0000
0000
0000
ENDCHAR

STARTCHAR Eacute
ENCODING 201
SWIDTH 500 0
DWIDTH 10 0
BBX 10 20 0 -5
BITMAP
0000
0E00
1C00
0000
7F80
7000
7000
7000
7000
7F00
7000
7000
7000
7000
7F80
0000
0000
0000
0000
0000
ENDCHAR

STARTCHAR Ecircumflex
ENCODING 202
SWIDTH 500 0
DWIDTH 10 0
BBX 10 20 0 -5
BITMAP
0000
3E00
7700
0000
7F80
7000
7000
7000
7000
7F00
7000
7000
7000
7000
7F80
0000
0000
0000
0000
0000
ENDCHAR

STARTCHAR Edieresis
ENCODING 203
SWIDTH 500 0
DWIDTH 10 0
BBX 10 20 0 -5
BITMAP
0000
7380
7380
0000
7F80
7000
7000
7000
7000
7F00
7000
7000
7000
7000
7F80
0000
0000
0000
0000
0000
ENDCHAR

STARTCHAR Igrave
ENCODING 204
SWIDTH 500 0
DWIDTH 10 0
BBX 10 20 0 -5
BITMAP
0000
3800
1C00
0000
FF80
1C00
1C00
1C00
1C00
1C00
1C00
1C00
1C00
1C00
FF80
0000
0000
0000
0000
0000
ENDCHAR

STARTCHAR Iacute
ENCODING 205
SWIDTH 500 0
DWIDTH 10 0
BBX 10 20 0 -5
BITMAP
0000
0E00
1C00
0000
FF80
1C00
1C00
1C00
1C00
1C00
1C00
1C00
1C00
1C00
FF80
0000
0000
0000
0000
0000
ENDCHAR

STARTCHAR Icircumflex
ENCODING 206
SWIDTH 500 0
DWIDTH 10 0
BBX 10 20 0 -5
BITMAP
0000
3E00
7700
0000
FF80
1C00
1C00
1C00
1C00
1C00
1C00
1C00
1C00
1C00
FF80
0000
0000
0000
0000
0000
ENDCHAR

STARTCHAR Idieresis
ENCODING 207
SWIDTH 500 0
DWIDTH 10 0
BBX 10 20 0 -5
BITMAP
0000
7700
7700
0000
FF80
1C00
1C00
1C00
1C00
1C00
1C00
1C00
1C00
1C00
FF80
0000
0000
0000
0000
0000
ENDCHAR

STARTCHAR Eth
ENCODING 208
SWIDTH 500 0
DWIDTH 10 0
BBX 10 20 0 -5
BITMAP
0000
0000
0000
0000
7E00
7300
7180
7180
F980
F980
7180
7180
7180
7300
7E00
0000
0000
0000
0000
0000
ENDCHAR

STARTCHAR Ntilde
ENCODING 209
SWIDTH 500 0
DWIDTH 10 0
BBX 10 20 0 -5
BITMAP
0000
3D00
5E00
0000
E380
E380
F380
F380
FB80
FF80
EF80
E780
E780
E380
E380
0000
0000
0000
0000
0000
ENDCHAR

STARTCHAR Ograve
ENCODING 210
SWIDTH 500 0
DWIDTH 10 0
BBX 10 20 0 -5
BITMAP
0000
1C00
0E00
0000
3E00
7700
E380
E380
E380
E380
E380
E380
E380
7700
3E00
0000
0000
0000
0000
0000
ENDCHAR

STARTCHAR Oacute
ENCODING 211
SWIDTH 500 0
DWIDTH 10 0
BBX 10 20 0 -5
BITMAP
0000
0E00
1C00
0000
3E00
7700
E380
E380
E380
E380
E380
E380
E380
7700
3E00
0000
0000
0000
0000
0000
ENDCHAR

STARTCHAR Ocircumflex
ENCODING 212
SWIDTH 500 0
DWIDTH 10 0
BBX 10 20 0 -5
BITMAP
0000
3E00
7700
0000
3E00
7700
E380
E380
E380
E380
E380
E380
E380
7700
3E00
0000
0000
0000
0000
0000
ENDCHAR

STARTCHAR Otilde
ENCODING 213
SWIDTH 500 0
DWIDTH 10 0
BBX 10 20 0 -5
BITMAP
0000
1D00
2E00
0000
3E00
7700
E380
E380
E380
E380
E380
E380
E380
7700
3E00
0000
0000
0000
0000
0000
ENDCHAR

STARTCHAR Odieresis
ENCODING 214
SWIDTH 500 0
DWIDTH 10 0
BBX 10 20 0 -5
BITMAP
0000
7700
7700
0000
3E00
7700
E380
E380
E380
E380
E380
E380
E380
7700
3E00
0000
0000
0000
0000
0000
ENDCHAR

STARTCHAR multiply
ENCODING 215
SWIDTH 500 0
DWIDTH 10 0
BBX 10 20 0 -5
BITMAP
0000
0000
0000
0000
0000
0000
6300
7700
3E00
1C00
3E00
7700
6300
0000
0000
0000
0000
0000
0000
0000
ENDCHAR

STARTCHAR Oslash
ENCODING 216
SWIDTH 500 0
DWIDTH 10 0
BBX 10 20 0 -5
BITMAP
0000
0000
0000
0000
3E00
7780
E380
E780
EF80
FB80
F380
E380
E380
F700
3E00
0000
0000
0000
0000
0000
ENDCHAR

STARTCHAR Ugrave
ENCODING 217
SWIDTH 500 0
DWIDTH 10 0
BBX 10 20 0 -5
BITMAP
0000
3800
1C00
0000
E380
E380
E380
E380
E380
E380
E380
E380
E380
6300
3E00
0000
0000
0000
0000
0000
ENDCHAR

STARTCHAR Uacute
ENCODING 218
SWIDTH 500 0
DWIDTH 10 0
BBX 10 20 0 -5
BITMAP
0000
0E00
1C00
0000
E380
E380
E380
E380
E380
E380
E380
E380
E380
6300
3E00
0000
0000
0000
0000
0000
ENDCHAR

STARTCHAR Ucircumflex
ENCODING 219
SWIDTH 500 0
DWIDTH 10 0
BBX 10 20 0 -5
BITMAP
0000
3E00
7700
0000
E380
E380
E380
E380
E380
E380
E380
E380
E380
6300
3E00
0000
0000
0000
0000
0000
ENDCHAR

STARTCHAR Udieresis
ENCODING 220
SWIDTH 500 0
DWIDTH 10 0
BBX 10 20 0 -5
BITMAP
0000
7700
7700
0000
E380
E380
E380
E380
E380
E380
E380
E380
E380
6300
3E00
0000
0000
0000
0000
0000
ENDCHAR

STARTCHAR Yacute
ENCODING 221
SWIDTH 500 0
DWIDTH 10 0
BBX 10 20 0 -5
BITMAP
0000
0E00
1C00
0000
E380
E380
E380
6300
7700
3E00
1C00
1C00
1C00
1C00
1C00
0000
0000
0000
0000
0000
ENDCHAR

STARTCHAR Thorn
ENCODING 222
SWIDTH 500 0
DWIDTH 10 0
BBX 10 20 0 -5
BITMAP
0000
0000
0000
0000
F800
7000
7E00
7700
7380
7380
7700
7E00
7000
7000
F800
0000
0000
0000
0000
0000
ENDCHAR

STARTCHAR germandbls
ENCODING 223
SWIDTH 500 0
DWIDTH 10 0
BBX 10 20 0 -5
BITMAP
0000
0000
0000
0000
3E00
6300
E380
E780
FF00
E780
E380
E380
E380
E780
EF00
E000
E000
0000
0000
0000
ENDCHAR

STARTCHAR agrave
ENCODING 224
SWIDTH 500 0
DWIDTH 10 0
BBX 10 20 0 -5
BITMAP
0000
0000
0000
0000
1C00
0E00
0000
3F00
6380
0380
7F80
E380
E380
E780
7B80
0000
0000
0000
0000
0000
ENDCHAR

STARTCHAR aacute
ENCODING 225
SWIDTH 500 0
DWIDTH 10 0
BBX 10 20 0 -5
BITMAP
0000
0000
0000
0000
0700
0E00
0000
3F00
6380
0380
7F80
E380
E380
E780
7B80
0000
0000
0000
0000
0000
ENDCHAR

STARTCHAR acircumflex
ENCODING 226
SWIDTH 500 0
DWIDTH 10 0
BBX 10 20 0 -5
BITMAP
0000
0000
0000
0000
3E00
7700
0000
3F00
6380
0380
7F80
E380
E380
E780
7B80
0000
0000
0000
0000
0000
ENDCHAR

STARTCHAR atilde
ENCODING 227
SWIDTH 500 0
DWIDTH 10 0
BBX 10 20 0 -5
BITMAP
0000
0000
0000
0000
3D00
5E00
0000
3F00
6380
0380
7F80
E380
E380
E780
7B80
0000
0000
0000
0000
0000
ENDCHAR

STARTCHAR adieresis
ENCODING 228
SWIDTH 500 0
DWIDTH 10 0
BBX 10 20 0 -5
BITMAP
0000
0000
0000
0000
7380
7380
0000
3F00
6380
0380
7F80
E380
E380
E780
7B80
0000
0000
0000
0000
0000
ENDCHAR

STARTCHAR aring
ENCODING 229
SWIDTH 500 0
DWIDTH 10 0
BBX 10 20 0 -5
BITMAP
0000
0000
0000
0000
1C00
1C00
0000
3F00
6380
0380
7F80
E380
E380
E780
7B80
0000
0000
0000
0000
0000
ENDCHAR

STARTCHAR ae
ENCODING 230
SWIDTH 500 0
DWIDTH 10 0
BBX 10 20 0 -5
BITMAP
0000
0000
0000
0000
0000
0000
0000
7B00
DF80
1C80
7F80
DC00
DC00
DC00
7F80
0000
0000
0000
0000
0000
ENDCHAR

STARTCHAR ccedilla
ENCODING 231
SWIDTH 500 0
DWIDTH 10 0
BBX 10 20 0 -5
BITMAP
0000
0000
0000
0000
0000
0000
0000
3F00
7380
E180
E000
E000
E180
7380
3F00
0600
0C00
0000
0000
0000
ENDCHAR

STARTCHAR egrave
ENCODING 232
SWIDTH 500 0
DWIDTH 10 0
BBX 10 20 0 -5
BITMAP
0000
0000
0000
0000
1C00
0E00
0000
3E00
7300
E380
FF80
E000
E180
7380
3F00
0000
0000
0000
0000
0000
ENDCHAR

STARTCHAR eacute
ENCODING 233
SWIDTH 500 0
DWIDTH 10 0
BBX 10 20 0 -5
BITMAP
0000
0000
0000
0000
0E00
1C00
0000
3E00
7300
E380
FF80
E000
E180
7380
3F00
0000
0000
0000
0000
0000
ENDCHAR

STARTCHAR ecircumflex
ENCODING 234
SWIDTH 500 0
DWIDTH 10 0
BBX 10 20 0 -5
BITMAP
0000
0000
0000
0000
3E00
7700
0000
3E00
7300
E380
FF80
E000
E180
7380
3F00
0000
0000
0000
0000
0000
ENDCHAR

STARTCHAR edieresis
ENCODING 235
SWIDTH 500 0
DWIDTH 10 0
BBX 10 20 0 -5
BITMAP
0000
0000
0000
0000
7380
7380
0000
3E00
7300
E380
FF80
E000
E180
7380
3F00
0000
0000
0000
0000
0000
ENDCHAR

STARTCHAR igrave
ENCODING 236
SWIDTH 500 0
DWIDTH 10 0
BBX 10 20 0 -5
BITMAP
0000
0000
0000
0000
3800
1C00
0000
7C00
1C00
1C00
1C00
1C00
1C00
1C00
FF80
0000
0000
0000
0000
0000
ENDCHAR

STARTCHAR iacute
ENCODING 237
SWIDTH 500 0
DWIDTH 10 0
BBX 10 20 0 -5
BITMAP
0000
0000
0000
0000
0E00
1C00
0000
7C00
1C00
1C00
1C00
1C00
1C00
1C00
FF80
0000
0000
0000
0000
0000
ENDCHAR

STARTCHAR icircumflex
ENCODING 238
SWIDTH 500 0
DWIDTH 10 0
BBX 10 20 0 -5
BITMAP
0000
0000
0000
0000
3E00
7700
0000
7C00
1C00
1C00
1C00
1C00
1C00
1C00
FF80
0000
0000
0000
0000
0000
ENDCHAR

STARTCHAR idieresis
ENCODING 239
SWIDTH 500 0
DWIDTH 10 0
BBX 10 20 0 -5
BITMAP
0000
0000
0000
0000
7700
7700
0000
7C00
1C00
1C00
1C00
1C00
1C00
1C00
FF80
0000
0000
0000
0000
0000
ENDCHAR

STARTCHAR eth
ENCODING 240
SWIDTH 500 0
DWIDTH 10 0
BBX 10 20 0 -5
BITMAP
0000
0000
0000
2C00
1800
2C00
0E00
1F00
3F80
7380
7380
7380
7380
3F00
0E00
0000
0000
0000
0000
0000
ENDCHAR

STARTCHAR ntilde
ENCODING 241
SWIDTH 500 0
DWIDTH 10 0
BBX 10 20 0 -5
BITMAP
0000
0000
0000
0000
3D00
5E00
0000
EF00
FF80
E380
E380
E380
E380
E380
E380
0000
0000
0000
0000
0000
ENDCHAR

STARTCHAR ograve
ENCODING 242
SWIDTH 500 0
DWIDTH 10 0
BBX 10 20 0 -5
BITMAP
0000
0000
0000
0000
1C00
0E00
0000
3E00
6300
E380
E380
E380
E380
6300
3E00
0000
0000
0000
0000
0000
ENDCHAR

STARTCHAR oacute
ENCODING 243
SWIDTH 500 0
DWIDTH 10 0
BBX 10 20 0 -5
BITMAP
0000
0000
0000
0000
0E00
1C00
0000
3E00
6300
E380
E380
E380
E380
6300
3E00
0000
0000
0000
0000
0000
ENDCHAR

STARTCHAR ocircumflex
ENCODING 244
SWIDTH 500 0
DWIDTH 10 0
BBX 10 20 0 -5
BITMAP
0000
0000
0000
0000
3E00
7700
0000
3E00
6300
E380
E380
E380
E380
6300
3E00
0000
0000
0000
0000
0000
ENDCHAR

STARTCHAR otilde
ENCODING 245
SWIDTH 500 0
DWIDTH 10 0
BBX 10 20 0 -5
BITMAP
0000
0000
0000
0000
1D00
2E00
0000
3E00
6300
E380
E380
E380
E380
6300
3E00
0000
0000
0000
0000
0000
ENDCHAR

STARTCHAR odieresis
ENCODING 246
SWIDTH 500 0
DWIDTH 10 0
BBX 10 20 0 -5
BITMAP
0000
0000
0000
0000
7700
7700
0000
3E00
6300
E380
E380
E380
E380
6300
3E00
0000
0000
0000
0000
0000
ENDCHAR

STARTCHAR divide
ENCODING 247
SWIDTH 500 0
DWIDTH 10 0
BBX 10 20 0 -5
BITMAP
0000
0000
0000
0000
0000
0C00
0C00
0000
7F80
7F80
0000
0C00
0C00
0000
0000
0000
0000
0000
0000
0000
ENDCHAR

STARTCHAR oslash
ENCODING 248
SWIDTH 500 0
DWIDTH 10 0
BBX 10 20 0 -5
BITMAP
0000
0000
0000
0000
0000
0000
0000
3E80
6300
E780
EF80
FB80
F380
6300
BE00
0000
0000
0000
0000
0000
ENDCHAR

STARTCHAR ugrave
ENCODING 249
SWIDTH 500 0
DWIDTH 10 0
BBX 10 20 0 -5
BITMAP
0000
0000
0000
0000
1C00
0E00
0000
E380
E380
E380
E380
E380
E380
E380
7D80
0000
0000
0000
0000
0000
ENDCHAR

STARTCHAR uacute
ENCODING 250
SWIDTH 500 0
DWIDTH 10 0
BBX 10 20 0 -5
BITMAP
0000
0000
0000
0000
0E00
1C00
0000
E380
E380
E380
E380
E380
E380
E380
7D80
0000
0000
0000
0000
0000
ENDCHAR

STARTCHAR ucircumflex
ENCODING 251
SWIDTH 500 0
DWIDTH 10 0
BBX 10 20 0 -5
BITMAP
0000
0000
0000
0000
3E00
7700
0000
E380
E380
E380
E380
E380
E380
E380
7D80
0000
0000
0000
0000
0000
ENDCHAR

STARTCHAR udieresis
ENCODING 252
SWIDTH 500 0
DWIDTH 10 0
BBX 10 20 0 -5
BITMAP
0000
0000
0000
0000
7700
7700
0000
E380
E380
E380
E380
E380
E380
E380
7D80
0000
0000
0000
0000
0000
ENDCHAR

STARTCHAR yacute
ENCODING 253
SWIDTH 500 0
DWIDTH 10 0
BBX 10 20 0 -5
BITMAP
0000
0000
0000
0000
0E00
1C00
0000
E380
E380
E380
E380
E380
7700
3700
1E00
1C00
3C00
7800
7000
0000
ENDCHAR

STARTCHAR thorn
ENCODING 254
SWIDTH 500 0
DWIDTH 10 0
BBX 10 20 0 -5
BITMAP
0000
0000
0000
0000
0000
0000
0000
7C00
3800
3F00
3B80
39C0
39C0
3B80
3F00
3800
3800
3800
7C00
0000
ENDCHAR

STARTCHAR ydieresis
ENCODING 255
SWIDTH 500 0
DWIDTH 10 0
BBX 10 20 0 -5
BITMAP
0000
0000
0000
0000
7380
7380
0000
E380
E380
E380
E380
E380
7700
3700
1E00
1C00
3C00
7800
7000
0000
ENDCHAR
ENDFONT
